# xmcd
#
# Track frame offsets: 
#        150
#        10117
#        31889
#        44012
#        64595
#        79642
#        94928
#        106668
#        123843
#        141369
#        158456
#        181876
#        195041
#        211430
#        229274
#        243406
#        255273
#
# Disc length: 3551 seconds
#
# Revision: 0
# Processed by: cddbd v1.5.2PL0 Copyright (c) Steve Scherf et al.
# Submitted via: ExactAudioCopyFreeDBPlugin 1.0
#
DISCID=cd0ddd11
DTITLE=Philomena Begley - From Then Till Now - CD-3
DYEAR=2012
DGENRE=Country
TTITLE0=Honky Tonkin'
TTITLE1=Deportees
TTITLE2=Pull The Covers Over Me
TTITLE3=Red Is The Rose
TTITLE4=Sentimental Ol' You
TTITLE5=One Love At A Time
TTITLE6=The Key's In The Mailbox
TTITLE7=Gold And Silver Days
TTITLE8=Dark Island
TTITLE9=Galway Bay
TTITLE10=Home I'll Be
TTITLE11=The Song From Way Back Then
TTITLE12=The Last Supper
TTITLE13=It's Been A Long Time
TTITLE14=Tribute To Billie Jo
TTITLE15=God, If I Could Only Write Your Love Song
TTITLE16=Wildwood Flower (Instrumental)
EXTD=
EXTT0=
EXTT1=
EXTT2=
EXTT3=
EXTT4=
EXTT5=
EXTT6=
EXTT7=
EXTT8=
EXTT9=
EXTT10=
EXTT11=
EXTT12=
EXTT13=
EXTT14=
EXTT15=
EXTT16=
PLAYORDER=
